<?xml version="1.0" standalone="no"?>
<!DOCTYPE svg PUBLIC "-//W3C//DTD SVG 20010904//EN"
 "http://www.w3.org/TR/2001/REC-SVG-20010904/DTD/svg10.dtd">
<svg version="1.0" xmlns="http://www.w3.org/2000/svg"
 width="1024.000000pt" height="1024.000000pt" viewBox="0 0 1024.000000 1024.000000"
 preserveAspectRatio="xMidYMid meet">

<g transform="translate(0.000000,1024.000000) scale(0.100000,-0.100000)"
fill="#1c64f2" stroke="none">
<path d="M5771 9264 c-129 -34 -289 -152 -420 -307 -213 -253 -428 -676 -602
-1185 -240 -703 -463 -1719 -580 -2643 -17 -140 -33 -256 -35 -258 -19 -21
-337 287 -406 394 -100 154 -153 281 -202 484 -60 244 -84 466 -92 851 -4 168
-11 288 -20 328 -79 355 -497 513 -796 299 -35 -24 -97 -82 -138 -128 -41 -46
-85 -95 -98 -109 -49 -53 -192 -240 -264 -345 -409 -599 -630 -1316 -631
-2045 0 -225 12 -372 48 -585 106 -629 366 -1212 758 -1700 111 -137 347 -377
493 -499 564 -472 1282 -770 2014 -836 148 -13 492 -13 640 0 446 40 897 169
1301 371 880 440 1516 1170 1824 2094 210 627 246 1234 114 1885 -122 601
-390 1155 -788 1625 -42 49 -188 204 -325 345 -438 448 -624 676 -842 1033
-90 147 -269 476 -350 642 -26 52 -64 115 -85 139 -120 136 -337 199 -518 150z
m-179 -3777 c89 -177 211 -367 311 -486 39 -46 148 -164 241 -260 94 -97 201
-219 238 -271 207 -292 309 -626 295 -967 -12 -310 -107 -592 -285 -848 -79
-114 -276 -307 -392 -384 -276 -184 -563 -273 -875 -273 -682 1 -1278 435
-1490 1087 -59 180 -99 478 -62 462 177 -77 342 -131 526 -171 200 -44 364
-65 574 -73 193 -7 187 -9 187 75 0 131 60 600 110 864 127 676 293 1140 478
1340 30 32 57 58 61 58 3 0 41 -69 83 -153z"/>
</g>
</svg>
