<svg xmlns="http://www.w3.org/2000/svg">
    <svg id="icon-graph-stock" class="w-6 h-6 text-gray-500 dark:text-white" aria-hidden="true"
        xmlns="http://www.w3.org/2000/svg" width="24" height="24" fill="none" viewBox="0 0 24 24">
        <path stroke="currentColor" stroke-linecap="round" stroke-linejoin="round" stroke-width="3"
            d="M4 4.5V19a1 1 0 0 0 1 1h15M7 14l4-4 4 4 5-5m0 0h-3.207M20 9v3.207" />
    </svg>

    <svg id="icon-graph-sales" class="w-6 h-6 text-gray-500 dark:text-white" aria-hidden="true"
        xmlns="http://www.w3.org/2000/svg" width="24" height="24" fill="currentColor"
        viewBox="0 0 24 24">
        <path fill-rule="evenodd"
            d="M9 15a6 6 0 1 1 12 0 6 6 0 0 1-12 0Zm3.845-1.855a2.4 2.4 0 0 1 1.2-1.226 1 1 0 0 1 1.992-.026c.426.15.809.408 1.111.749a1 1 0 1 1-1.496 1.327.682.682 0 0 0-.36-.213.997.997 0 0 1-.113-.032.4.4 0 0 0-.394.074.93.93 0 0 0 .455.254 2.914 2.914 0 0 1 1.504.9c.373.433.669 1.092.464 1.823a.996.996 0 0 1-.046.129c-.226.519-.627.94-1.132 1.192a1 1 0 0 1-1.956.093 2.68 2.68 0 0 1-1.227-.798 1 1 0 1 1 1.506-1.315.682.682 0 0 0 .363.216c.038.009.075.02.111.032a.4.4 0 0 0 .395-.074.93.93 0 0 0-.455-.254 2.91 2.91 0 0 1-1.503-.9c-.375-.433-.666-1.089-.466-1.817a.994.994 0 0 1 .047-.134Zm1.884.573.003.008c-.003-.005-.003-.008-.003-.008Zm.55 2.613s-.002-.002-.003-.007a.032.032 0 0 1 .003.007ZM4 14a1 1 0 0 1 1 1v4a1 1 0 1 1-2 0v-4a1 1 0 0 1 1-1Zm3-2a1 1 0 0 1 1 1v6a1 1 0 1 1-2 0v-6a1 1 0 0 1 1-1Zm6.5-8a1 1 0 0 1 1-1H18a1 1 0 0 1 1 1v3a1 1 0 1 1-2 0v-.796l-2.341 2.049a1 1 0 0 1-1.24.06l-2.894-2.066L6.614 9.29a1 1 0 1 1-1.228-1.578l4.5-3.5a1 1 0 0 1 1.195-.025l2.856 2.04L15.34 5h-.84a1 1 0 0 1-1-1Z"
            clip-rule="evenodd" />
    </svg>

    <svg
        id="icon-sales"
        aria-hidden="true"
        class="flex-shrink-0 w-6 h-6 text-gray-500 transition duration-75 group-hover:text-gray-900 dark:text-gray-400 dark:group-hover:text-white"
        fill="currentColor"
        viewBox="0 0 20 20"
        xmlns="http://www.w3.org/2000/svg"
    >
        <path
            fill-rule="evenodd"
            d="M10 2a4 4 0 00-4 4v1H5a1 1 0 00-.994.89l-1 9A1 1 0 004 18h12a1 1 0 00.994-1.11l-1-9A1 1 0 0015 7h-1V6a4 4 0 00-4-4zm2 5V6a2 2 0 10-4 0v1h4zm-6 3a1 1 0 112 0 1 1 0 01-2 0zm7-1a1 1 0 100 2 1 1 0 000-2z"
            clip-rule="evenodd"
        ></path>
    </svg>
    <svg
        id="icon-overview"
        aria-hidden="true"
        class="w-6 h-6 text-gray-500 transition duration-75 dark:text-gray-400 group-hover:text-gray-900 dark:group-hover:text-white"
        fill="currentColor"
        viewBox="0 0 20 20"
        xmlns="http://www.w3.org/2000/svg"
    >
        <path d="M2 10a8 8 0 018-8v8h8a8 8 0 11-16 0z"></path>
        <path d="M12 2.252A8.014 8.014 0 0117.748 8H12V2.252z"></path>
    </svg>
    <symbol id="icon-document"
        aria-hidden="true"
        class="flex-shrink-0 w-6 h-6 text-gray-500 transition duration-75 dark:text-gray-400 group-hover:text-gray-900 dark:group-hover:text-white"
        fill="currentColor"
        viewBox="0 0 20 20"
        xmlns="http://www.w3.org/2000/svg"
    >
        <path d="M9 2a1 1 0 000 2h2a1 1 0 100-2H9z"></path>
        <path
            fill-rule="evenodd"
            d="M4 5a2 2 0 012-2 3 3 0 003 3h2a3 3 0 003-3 2 2 0 012 2v11a2 2 0 01-2 2H6a2 2 0 01-2-2V5zm3 4a1 1 0 000 2h.01a1 1 0 100-2H7zm3 0a1 1 0 000 2h3a1 1 0 100-2h-3zm-3 4a1 1 0 100 2h.01a1 1 0 100-2H7zm3 0a1 1 0 100 2h3a1 1 0 100-2h-3z"
            clip-rule="evenodd"
        ></path>
    </symbol>
    <symbol id="icon-fuel" viewBox="0 0 24 24" fill="none" stroke="currentColor" stroke-width="1.5">
        <path stroke-linecap="round" stroke-linejoin="round"
            d="M4.26 10.147a60.438 60.438 0 0 0-.491 6.347A48.62 48.62 0 0 1 12 20.904a48.62 48.62 0 0 1 8.232-4.41 60.46 60.46 0 0 0-.491-6.347m-15.482 0a50.636 50.636 0 0 0-2.658-.813A59.906 59.906 0 0 1 12 3.493a59.903 59.903 0 0 1 10.399 5.84c-.896.248-1.783.52-2.658.814m-15.482 0A50.717 50.717 0 0 1 12 13.489a50.702 50.702 0 0 1 7.74-3.342M6.75 15a.75.75 0 1 0 0-1.5.75.75 0 0 0 0 1.5Zm0 0v-3.675A55.378 55.378 0 0 1 12 8.443m-7.007 11.55A5.981 5.981 0 0 0 6.75 15.75v-1.5" />
    </symbol>
</svg>